PathFileType	4	(X/Y/Z)	/Users/niels/Desktop/University/Third Semester/Perception and Action/Exam/Gymnastics Motion Tracking/Code for Gym Tracking/Analyzed Data/Webcam_Backflip/id5_5_trajectory_Sports2D/id5_5_trajectory_Sports2D_px_person00.trc
DataRate	CameraRate	NumFrames	NumMarkers	Units	OrigDataRate	OrigDataStartFrame	OrigNumFrames
29.81132075471698	29.81132075471698	12	22	m	29.81132075471698	99	159
Frame#	Time	Hip			RHip			RKnee			RAnkle			RBigToe			RSmallToe			RHeel			LHip			LKnee			LAnkle			LBigToe			LSmallToe			LHeel			Neck			Head			Nose			RShoulder			RElbow			RWrist			LShoulder			LElbow			LWrist		
		X1	Y1	Z1	X2	Y2	Z2	X3	Y3	Z3	X4	Y4	Z4	X5	Y5	Z5	X6	Y6	Z6	X7	Y7	Z7	X8	Y8	Z8	X9	Y9	Z9	X10	Y10	Z10	X11	Y11	Z11	X12	Y12	Z12	X13	Y13	Z13	X14	Y14	Z14	X15	Y15	Z15	X16	Y16	Z16	X17	Y17	Z17	X18	Y18	Z18	X19	Y19	Z19	X20	Y20	Z20	X21	Y21	Z21	X22	Y22	Z22
99	3.320886075949367	0.8036628190655144	-0.5927860468896687	0.0	0.7975095932437408	-0.5917438665756437	0.0	0.793128138384183	-0.6883427259250932	0.0	0.7679586416735705	-0.7861574605446029	0.0	0.8043848658667525	-0.8057681618003375	0.0	0.7925761935181965	-0.807368793102797	0.0	0.7572448906952327	-0.801057809302441	0.0	0.8091880540685951	-0.5918614296514506	0.0	0.8015136407061928	-0.6876000724037957	0.0	0.7779135633713449	-0.7812116679273728	0.0	0.8130279017442223	-0.8033513796908641	0.0	0.810387814194037	-0.7979357146400232	0.0	0.7671101409641532	-0.7927694133236186	0.0	0.8060957057608629	-0.44457699520254557	0.0	0.8272004461631854	-0.3862671675076082	0.0	0.8389970319823733	-0.41800984560865617	0.0	0.792248522082718	-0.4614386513895922	0.0	0.771560840102498	-0.5258963142948564	0.0	0.7686247987481944	-0.5890785949855044	0.0	0.8097153548933114	-0.4642080718675668	0.0	0.7954374608981089	-0.5280411940383798	0.0	0.7818052219968602	-0.5825272234455467	0.0
100	3.354430379746835	0.8041642050375483	-0.5890971172982232	0.0	0.7980024523266456	-0.5880733673766498	0.0	0.7982560318719252	-0.6847083985438763	0.0	0.7689697317481505	-0.7818418540805884	0.0	0.8050945225370171	-0.8026169996666683	0.0	0.792777680528096	-0.8040179402047386	0.0	0.7578729673782332	-0.7968165695972683	0.0	0.8093414335715359	-0.5881786424969381	0.0	0.8013866781625641	-0.6840191140700427	0.0	0.7774634997154596	-0.7774452794122804	0.0	0.812816130278875	-0.799903353056122	0.0	0.810180029616247	-0.7949536592233933	0.0	0.7662557152978785	-0.7897723035110227	0.0	0.8066440257625772	-0.4411833715154887	0.0	0.8279785471648935	-0.3830059705548836	0.0	0.8396294032904423	-0.4154711275763451	0.0	0.791705498931921	-0.4575866192166452	0.0	0.7715732992659122	-0.5219168113971331	0.0	0.7698611469176317	-0.5859859568625931	0.0	0.8112222711147021	-0.46094299171070147	0.0	0.7983682041383913	-0.5251844181050329	0.0	0.7890202378174705	-0.5805582072750375	0.0
101	3.3879746835443036	0.8045553422654346	-0.5846701906834603	0.0	0.7983005998564173	-0.5836531174319665	0.0	0.8048369194267705	-0.6800982530807618	0.0	0.770373906148978	-0.7761940486254187	0.0	0.8062007177660222	-0.7986369459360478	0.0	0.7933481480229251	-0.7998216077858901	0.0	0.7586730693809212	-0.7912350946669425	0.0	0.8094280440057809	-0.5838669973699602	0.0	0.8007994761110134	-0.6797792354617436	0.0	0.7770303012946038	-0.77282060649306	0.0	0.8127214666586828	-0.7957655766038203	0.0	0.8099859899832244	-0.7911975301265073	0.0	0.7654815291132502	-0.7859777453785509	0.0	0.8074296791672104	-0.437072492265207	0.0	0.8286000667281814	-0.3790458575437449	0.0	0.8403495555519415	-0.41226934286819816	0.0	0.7911317601451912	-0.4528621902846583	0.0	0.771818496581407	-0.5172889977039443	0.0	0.7720731324145764	-0.5822192475552085	0.0	0.8134406980159803	-0.4571897074169555	0.0	0.802894551490115	-0.5222753860983625	0.0	0.799706849097409	-0.5784580071037728	0.0
102	3.421518987341772	0.8046693714146651	-0.5800431443501738	0.0	0.7982329452347643	-0.5790728063563746	0.0	0.8122825179624404	-0.674880742507325	0.0	0.7722777593221427	-0.7696889287390472	0.0	0.8077320017580115	-0.7941671569681847	0.0	0.7945254608807563	-0.7950829324072497	0.0	0.7598066482249031	-0.7847411647866434	0.0	0.8094794026776256	-0.5794916931594172	0.0	0.7998410447744161	-0.675378585492512	0.0	0.7767929474943513	-0.7678212379349312	0.0	0.8128856743402901	-0.7912914069325928	0.0	0.8099357403193166	-0.7870157377075478	0.0	0.7649813627299386	-0.7817456418268278	0.0	0.8084545157791613	-0.43279977341550274	0.0	0.8291364499059494	-0.3748178625569416	0.0	0.8411125301853845	-0.4088869818154827	0.0	0.7906078154770593	-0.4478764436631313	0.0	0.77217841891397	-0.5126241964022621	0.0	0.7753313013518378	-0.5780351108663354	0.0	0.8163397709351606	-0.4534494398923211	0.0	0.8088202667037169	-0.5195715337999336	0.0	0.8124237721723839	-0.5762117494331889	0.0
103	3.4550632911392403	0.8043307371621068	-0.5757105474123158	0.0	0.7976444119316481	-0.5748677713438672	0.0	0.8197377821003461	-0.6694882584809074	0.0	0.774910363144092	-0.7630404211724573	0.0	0.8098583629656652	-0.7896020220311483	0.0	0.7966506115632322	-0.7902131761156483	0.0	0.7616153291747083	-0.7780633480606071	0.0	0.8094670047431846	-0.5755289600208254	0.0	0.798796750047611	-0.6712791309945859	0.0	0.7768758979162579	-0.7630322454110012	0.0	0.8134030706399732	-0.7868449586115481	0.0	0.810137184457142	-0.7828217176119279	0.0	0.7648919166075954	-0.7775933925371007	0.0	0.8096495945383778	-0.42890416892659067	0.0	0.8296680809961502	-0.37071254516597485	0.0	0.8418075053801299	-0.40573892000868983	0.0	0.7902083607223331	-0.443251549418504	0.0	0.7725890055915556	-0.5084687782071761	0.0	0.7795857153567	-0.5736067196875511	0.0	0.8197227031834848	-0.45010063528267347	0.0	0.8156866849602398	-0.5170294166627787	0.0	0.8259143531178059	-0.573542368665713	0.0
104	3.488607594936709	0.8034989317265916	-0.5720112912314942	0.0	0.7964911322286296	-0.5713952341970815	0.0	0.8263761637216306	-0.6643511674392346	0.0	0.7785808688484551	-0.7570877824918248	0.0	0.8128234131829402	-0.7853796507370928	0.0	0.800012853083874	-0.7857306657312372	0.0	0.764558148366049	-0.7721427845998884	0.0	0.8093720576679876	-0.5722577742629512	0.0	0.7979414332165429	-0.6677989022648737	0.0	0.7772837198784469	-0.7590530529222486	0.0	0.8142999469065499	-0.782829091333178	0.0	0.8106236074823241	-0.7790794761489515	0.0	0.765277503682053	-0.7741368019953415	0.0	0.8109174139906284	-0.42581471129001797	0.0	0.8302627299758831	-0.36705096693611405	0.0	0.8423245323933914	-0.40309457143837063	0.0	0.7899627234800445	-0.43951102033360484	0.0	0.7730510904885921	-0.5052571065787763	0.0	0.7845365700691537	-0.5691770789241217	0.0	0.8232846331138503	-0.44738022681355244	0.0	0.8229060244014844	-0.5144855829702073	0.0	0.8394051599206578	-0.5702056103207117	0.0
105	3.522151898734177	0.8023392657764327	-0.5691255330783005	0.0	0.7948882461419695	-0.5688192210002131	0.0	0.831653942535088	-0.6598751113678055	0.0	0.7835094448903177	-0.7526196750966594	0.0	0.8167523762447594	-0.7819429097766969	0.0	0.8046471756132128	-0.782174728821581	0.0	0.7689812786296283	-0.7678665381142692	0.0	0.8092765853407604	-0.5697786676405624	0.0	0.797370462499234	-0.6651157266576256	0.0	0.7778924522568385	-0.7563653439202396	0.0	0.8155038082625248	-0.7796878306443086	0.0	0.8112862076574843	-0.7762576739795665	0.0	0.7661044570587169	-0.7719089106704394	0.0	0.8121923235279477	-0.4237591971156009	0.0	0.8309211150663305	-0.3640847413064524	0.0	0.8426221391969088	-0.4010874351087867	0.0	0.7898425262172698	-0.43698646677066727	0.0	0.7735891574028345	-0.5032591063079842	0.0	0.7896280418328655	-0.565163808369299	0.0	0.8267452252050617	-0.44542643392439746	0.0	0.829936512015944	-0.5119171377714405	0.0	0.8523727057528118	-0.5663170500218137	0.0
106	3.5556962025316454	0.8011469666476885	-0.5671748490966914	0.0	0.7930856140210332	-0.5672188060981318	0.0	0.8353779245651489	-0.6564502620277665	0.0	0.7896685435370301	-0.7502081179924961	0.0	0.8215410009557603	-0.7796771459779274	0.0	0.8102865247996004	-0.7799772698123237	0.0	0.7749174682557323	-0.7658031592567732	0.0	0.8093158155595678	-0.568140297261685	0.0	0.7970436599870684	-0.6633632598905053	0.0	0.7784893603267775	-0.7552038057072604	0.0	0.8167954264148485	-0.7778159651438457	0.0	0.811848900276193	-0.7747087544048354	0.0	0.767202932782786	-0.7711679401907413	0.0	0.8134616685334337	-0.4227692033666306	0.0	0.8315849041920972	-0.36202894733187163	0.0	0.8427204993057924	-0.3998163364810067	0.0	0.7897830219005322	-0.43580591285459686	0.0	0.7742039490903385	-0.5025352425993597	0.0	0.794197773187899	-0.5620918795569392	0.0	0.8299491804985415	-0.4443354995295496	0.0	0.8364347309143125	-0.5095462536773863	0.0	0.8643602328209744	-0.5623632403539252	0.0
107	3.589240506329114	0.8002374468467104	-0.5663195210530738	0.0	0.7914334318228331	-0.566704191507759	0.0	0.837621740922903	-0.654442952731966	0.0	0.7967287310267452	-0.7500876379631612	0.0	0.826866066030405	-0.7788428709217295	0.0	0.8164482316259525	-0.7793819648416357	0.0	0.7820617265699272	-0.7660851195511591	0.0	0.8096053634096401	-0.5674591602574836	0.0	0.7968808000136228	-0.6626824573562653	0.0	0.7788623389685048	-0.7555213010688545	0.0	0.817833576727757	-0.7774274736326025	0.0	0.8119548059243927	-0.7745512977524652	0.0	0.7683211792645978	-0.7718556375537011	0.0	0.8147391435930903	-0.4227807634839878	0.0	0.8322060970282144	-0.3610785645314954	0.0	0.8426530954977213	-0.39940824894074795	0.0	0.789735408733327	-0.43597665367925226	0.0	0.7748702239827986	-0.5029899122322938	0.0	0.7976859963810881	-0.5604839914332295	0.0	0.8328483077171662	-0.4441756812918743	0.0	0.842268333235431	-0.5077309879826275	0.0	0.87499527708414	-0.5589310869269711	0.0
108	3.622784810126582	0.7999036812092146	-0.5667525813601709	0.0	0.7903300252462553	-0.567412832915797	0.0	0.8385965526842114	-0.6541547598816176	0.0	0.8040898726120941	-0.7521511066553139	0.0	0.8322563310694743	-0.779549194773382	0.0	0.8225447525826358	-0.7804582377240604	0.0	0.7898313310100195	-0.7684627956670554	0.0	0.8102850364730863	-0.5679180339191588	0.0	0.7968221580934924	-0.6631761081492753	0.0	0.7789116501180766	-0.7570824081214699	0.0	0.8183290645573715	-0.7785082886203152	0.0	0.8113573386561334	-0.7756557917683403	0.0	0.7692539451726538	-0.7737066404558448	0.0	0.8160367228307035	-0.4237117515291751	0.0	0.8327680607973124	-0.361344730521848	0.0	0.8424539544481546	-0.399954740160636	0.0	0.7897019384678545	-0.4374632508673605	0.0	0.77554079184178	-0.5044883514707836	0.0	0.7997657769005168	-0.5607604838281368	0.0	0.8354380117752983	-0.4449526858956773	0.0	0.8473846012412326	-0.5067936566616675	0.0	0.8840106489833842	-0.5564665287194138	0.0
109	3.6563291139240506	0.8003706750069224	-0.5685700244689014	0.0	0.7901037427588092	-0.5693884231047242	0.0	0.8385614019362446	-0.6557414454743065	0.0	0.8109764838102219	-0.7560562623137844	0.0	0.8372103030190574	-0.7817694723031842	0.0	0.828019741330189	-0.783139405078619	0.0	0.79740352085652	-0.7724845994365332	0.0	0.811532027905641	-0.569623798607761	0.0	0.796879002072264	-0.6648100126946015	0.0	0.7786941791550762	-0.7595754406925311	0.0	0.8182818104788525	-0.7808406888788118	0.0	0.8101674518463963	-0.7777070408419956	0.0	0.7699207495894684	-0.776366208274697	0.0	0.8173659422900085	-0.42546038256358665	0.0	0.833245531121866	-0.3627650344865271	0.0	0.842178918266509	-0.40141365445582583	0.0	0.7897312200007299	-0.4401728951817078	0.0	0.7761112591869581	-0.5069247087776162	0.0	0.8003141097924779	-0.5631083549872755	0.0	0.8377506881148514	-0.44657101766377827	0.0	0.8516887246219648	-0.506920820433292	0.0	0.8912289636476534	-0.5552074726109195	0.0
110	3.6898734177215187	0.801724530323573	-0.5716399476609414	0.0	0.7908945349880544	-0.5724858973269686	0.0	0.8377950115501389	-0.6591051124449742	0.0	0.8166377185965195	-0.7613448819611808	0.0	0.8413316619888382	-0.7853346921109804	0.0	0.83248669979149	-0.7872064535765004	0.0	0.8038596655383208	-0.7776799103911396	0.0	0.8134636200535065	-0.5724733164885318	0.0	0.7971289760274746	-0.6673702312039677	0.0	0.7783693371820943	-0.7626664207568383	0.0	0.8180312844361893	-0.784049780187551	0.0	0.8089452114716995	-0.780340320293735	0.0	0.7703443483403696	-0.7794808162444907	0.0	0.8187391064481745	-0.4278732445014332	0.0	0.8335768896299791	-0.36509306996899143	0.0	0.8418920055056917	-0.40358256910239154	0.0	0.7898910767379768	-0.4439054509934853	0.0	0.7764235147613212	-0.5102234053807414	0.0	0.7993109450756206	-0.5673874186964202	0.0	0.8398718165063785	-0.44883352760551903	0.0	0.8550508888757641	-0.5081470761699575	0.0	0.8965630462673362	-0.5552449730890332	0.0
